<svg xmlns="http://www.w3.org/2000/svg" viewBox="0 0 326 210">
    <defs>
        <style>
            .cls-1{fill:#413422;stroke-width:0}
        </style>
    </defs>
    <path class="cls-1" d="m74.45 119.04-1.36 1.36c-1.38-1.29-3.31 0-4.83-.97-.07-.04-.17-.14-.19-.12-1.79 1.45-3.92-1.06-5.7.5-1.44-.26-2.95.51-4.36-.47-.78-.54-1.44.71-2.6.38-.71-.81-1.83-1.58-2.22-3.04-.29-1.1-1.3-1.82-2.01-2.64-2.24-2.55-4.23-5.26-6.11-8.08-.75-1.12-1.49-2.38-2.62-3.22-.76-.57-1.02-1.45-1.55-2.16-1.22-1.62-2.47-3.2-3.78-4.74-1.4-1.64-2.77-3.32-3.77-5.26-1.14-2.21-2.82-3.99-4.68-5.65-.43 1.07-1.33 2.05-.25 3.31.25.29.04.98.04 1.48 0 2.44-.08 4.89.04 7.33.05 1.03-.66 1.81-.56 2.83.1 1 .02 2.01.02 3.25h6.25c.51 0 1.01-.03 1.52 0 .88.05 1.36.48 1.31 1.38-.11 2.15.74 4.19.56 6.37-.17 2.18-.02 4.38-.04 6.57-.01 1.68-.18 1.83-1.87 1.85-1.52.02-3.04-.07-4.55.03-.86.06-1.58-.92-2.29-.48-.71.44-1.37.44-2.1.45-.81.01-1.56.04-2.34.46-.84.45-1.23-.61-1.87-.99-.66.14-1.23.6-2.03.57-1.19-.04-2.46-.37-3.6.43-.25.18-.81.16-1.13-.25-.09-.11-.34-.25-.4-.21-1.89 1.26-3.76-.55-5.66-.03-.92.25-1.9-.19-2.86.46-.52.35-1.61.31-2.2 0-.88-.46-1.72-.4-2.6-.45-1.01-.05-1.39-.46-1.39-1.57-.02-3.45 0-6.91 0-10.36v-4.24h6.52c1.89 0 2.06-.15 2.07-1.91.01-4.46 0-8.93 0-13.39 0-.41.08-.92-.12-1.2-.83-1.17-.36-2.45-.31-3.64.04-.72.53-1.41-.08-2.11.31-2.28-.59-4.63.48-6.88.34-.72-.08-2.21-.67-3.24-1.89.25-3.94-.42-5.93.51-.35.16-.83.05-1.25.02-.75-.06-1.21-.46-1.22-1.24-.01-2.11-.39-4.31.11-6.29.46-1.84.2-3.6.39-5.38.03-.25.11-.61-.01-.74-.79-.84-.17-1.58.17-2.53 1.19.22 2.49-.45 3.71.5.2.16.66.06.98-.02q2.38-.6 4.44-.05c.31.08.71.19.96.07 1.65-.79 3.25.24 4.9.06 1.75-.19 3.53-.04 5.3-.04s3.54.08 5.31-.03c1.11-.07 2.33.53 3.35-.45.22-.21 1.92.82 2.25 1.19 1.47 1.63 2.46 3.6 4.02 5.19 1.37 1.4 2.42 3.16 3.42 4.88 1 1.74 2.57 3.04 3.46 4.88.88 1.8 2.49 3.07 3.91 4.44 1.59 1.53 2.78 3.31 3.97 5.17 1.16 1.81 2.25 3.74 3.88 5.23.26.24.48.48 1.1.13 0-1.04.08-2.28-.02-3.51-.1-1.2.46-2.47-.43-3.62-.21-.26-.2-.9-.03-1.22.9-1.65.3-3.41.48-5.11.09-.89-.34-1.36-1.21-1.52-.79-.15-1.45-.37-2.39-.09-1.31.39-2.83.1-4.24.1-.84-.86-1.29-1.81-1.27-3.05.06-3.62 0-7.24.02-10.87 0-1.43.31-1.8 1.72-1.73 1.79.09 3.64-.48 5.36.46.26.14.66.02 1 .02 2.86 0 5.73-.06 8.59.04.95.03 1.8-.89 2.54-.49 1.45.78 2.92.32 4.37.43.62.05 1.36.32 1.85-.39 1.66.79 3.53-.97 5.16.4.15.12.57.12.73 0 .71-.55 1.52-.5 2.33-.49.84.01 1.68 0 2.49 0 .58.95.79 1.92.77 3.02-.07 3.03-.01 6.07-.03 9.1 0 .74.02 1.46.54 2.02-.19.65-.76.92-1.19 1.45h-7.94c0 1.23.04 2.38-.01 3.53-.06 1.21.33 2.47-.47 3.6-.16.23-.14.72 0 .98.97 1.81.35 3.75.46 5.62.11 1.83.02 3.66.02 5.48-.97.3-1.55-.99-2.5-.2.6.88 1.59 1.12 2.5 1.46 0 6.71-.04 13.36.03 20.01.01 1.25-.78 2.29-.58 3.59.19 1.24.04 2.52.04 3.78Zm-8.3-55.77c-1.53-1.49-2.87-2.76-5.02-2.63-.46.03-.86.12-1.04.5-.43.91-1.48 1.37-1.69 2.43 1.62.16 3.28 1.25 4.69-.35.5.37.7.9 1.32.98.47-.25 1-.54 1.74-.93Zm.86 2.95c-1.47-2.12-3.1-.42-4.62-.4-.04.69-.26 1.34.16 1.91 1.66.05 3.3.15 4.46-1.5Zm-15.58 27.8c-.93-2.29-2.87-1.73-4.28-2.47v.68c.1 1.48.35 1.75 1.68 1.79.74.02 1.48 0 2.59 0Zm9.34-14.18c-1.76.23-2.16.46-1.94 1.39.2.85 1.05 1.07 1.94 1.18v-2.57Zm-49.81 33.32c-.11.31-.24.49-.19.6.4.96 1.56 1.39 1.78 2.49 0 .03.39.07.46 0 .14-.17.32-.53.25-.61-.72-.83-1.49-1.62-2.3-2.47Zm40.41-22.12c-.05 1.02.23 2.12.7 2.45.12.08.42-.09.87-.21-.72-.72-.59-1.8-1.57-2.24Zm15.51-27.59c1.09-.4 1.47-1.05 2.26-1.71h-1.69c.28.54-.38.78-.57 1.71Zm-38.5 17.11c-1.11.18-1.11.18-1.72 1.34 1 .02 1.17-.88 1.72-1.34Zm2.78-21.74c.31-.67.53-1.12.77-1.65q-.9.19-.77 1.65Zm58.54 60.37c-.82-1.83-.81-3.64-.31-5.63.5-2 .2-4.14.1-6.22-.79-.66-.39-1.56-.41-2.35-.02-.93.93-1.85 1.87-1.87 1.68-.04 3.37.01 5.05-.02 1.57-.03 2.68-1.41 2.02-2.81-.36-.76-.35-1.42-.35-2.13-.03-7.32-.03-14.65 0-21.97 0-.7-.34-1.52.42-2.09.56-3.01-1.31-4.49-3.8-3.69-1.43.46-2.77.19-4.15.31-.64.06-1.03-.44-1.08-1.1-.03-.42 0-.84 0-1.26 0-1.77.06-3.54-.02-5.3-.08-1.87.32-3.76-.44-5.62-.32-.78-.05-1.8-.05-2.95.96.3 1.85-.3 2.68.45.2.18.63.16.94.13 2.37-.2 4.77.42 7.14-.44.68-.25 1.58-.16 2.41.17 1.31.52 2.74.55 4.04-.04.59-.27 1.29-.35 1.67-.14 1.59.92 3.28.47 4.86.35.8-.06 1.69-.45 2.58-.38.95.07 1.99-.38 2.84.47.13.13.56.12.73 0 1.2-.86 2.56-.44 3.84-.47 2.95-.06 5.89.02 8.84-.04 1.12-.02 2.28.35 3.35-.45.33-.24 1.08-.21 1.47 0 1.33.7 2.73.46 4.1.46 2.94 0 5.8.23 8.7.92 2.17.52 4.2 1.18 6.25 2.03 2.82 1.16 4.64 3.32 6.31 5.64 1.09 1.51 2.14 3.07 2.76 4.91.22.66.21 1.26.32 1.88.14.86-.38 1.84.48 2.59.13.11.11.54 0 .73-.84 1.47-.44 3.25-1.36 4.75-.9 1.46-1.87 2.81-3.06 4.03-1.22 1.25-2.85 1.76-4.38 2.23-1.66.51-3.24 1.12-4.81 1.83.37.47.69.96 1.4.81 1.77-.38 3.19 1.02 4.88 1.01 1.69 1.39 3.77 2.28 5.13 4.08.96 1.27 1.78 2.6 2.51 4.01.12.23.24.42.22.67-.2 2.23.74 4.36.54 6.61-.14 1.61-.61 3.12-1.13 4.6-.16.44-.31.87-.45 1.33-.7 2.36-1.81 3.89-3.93 5.65-.45.38-.9.78-1.24 1.26-.37.52-.99.51-1.42.87-.66.55-2.07-.25-2.22 1.23-1.16-.19-2.21.36-3.32.5-1.2.15-2.46-.21-3.59.51-.18.11-.52.08-.74 0-2.98-.99-5.95.48-8.93.03-.55-.08-1.19-.19-1.58.44-.43-.45-.96-.55-1.54-.46-.86.14-1.83-.38-2.6.48-.15.17-.74.16-.97 0-1.21-.81-2.75-.05-3.94-.87-.12-.08-.36-.16-.45-.1-1.62 1.04-3.41.31-5.11.46-.69.06-1.47.3-2.12-.39-.2-.22-.8-.05-1.21-.08-.99-.08-1.77.7-2.83.57-.75-.09-1.48-.35-2.37-.17-1.18.24-2.61.57-3.83-.37-.26-.2-.86.08-1.23-.05-.98-.34-1.82.48-2.9.1-1.05-.37-2.33-.08-3.51-.08-1.09 0-2.19-.04-3.28.01-.71.04-1.49-.31-2.11.44-.14.17-.73.18-.95.03-1.08-.75-2.09-.78-3.13.02-1.18-.65-2.4.39-3.61-.1Zm26.86-24.62c-.73 2.72.42 4.93.32 7.24-.07 1.6.29 1.87 1.89 1.81.4-.02.76 0 1.17-.24.8-.46 1.71-.5 2.53.05.32.22.61.33.86.03.47-.55 1.09-.23 1.63-.36 1.43-.34 2.69.54 4.08.52 2.35-.03 4.71 0 7.06 0 .42 0 1.07.17 1.22-.04.8-1.06 2.01-.16 3-.77.8-.49 2.08-.21 3.06-.26 2.17-1.4 1.99-3.58 1.74-5.59-.19-1.47-1.42-2.77-2.86-2.85-1.48-.09-2.85-.63-4.32-.62-4.29.04-8.57.01-12.86.02-.49 0-1.07-.09-1.46.12-1.43.79-2.93.18-4.38.38-1.31-1.25-2.01-.06-2.65.55Zm27.59-21.54c-.35-.35-.61-.56-.82-.83-1.22-1.56-2.8-2.02-4.75-1.98-4.71.1-9.43-.02-14.14.06-1.72.03-3.3 0-4.44-1.53-.04-.06-.3.05-.45.08-.27.18-.14.46-.17.69-.03.24.09.51-.3.74-.22 0-.55-.01-.87 0-1.67.07-1.84.23-1.85 1.87-.02 1.68-.02 3.37 0 5.05.02 1.39.32 1.64 1.8 1.67h.5c2.21-.14 4.42.25 6.62-.46 1.58-.51 3.21.48 4.83.43 2.96-.1 5.94.43 8.9-.42 1.08-.31 2.32-.05 3.5-.05 1.1-1.62 1.75-3.29 1.65-5.31Zm-44.32 9.94c1.61-.18 2.78.15 3.99-.3-1.28-1.81-1.83-1.8-3.99.3Zm47.43 46.07c1.89 1.38 2.68 3.44 4.42 4.76v2.09c.55.48.83.13 1.24-.28.55.55 1.16 1.08 1.66 1.68.41.5.98.45 1.36.28.38-.17.88-.52.77-1.16-.21-1.29.42-2.67-.34-3.9-.12-.19-.17-.2 0-.38.86-.94-.06-1.54-.64-1.52-1.2.05-1.08-.86-1.6-1.63 2.6.18 5.07-.36 7.66.8-.27 1.66.47 3.54-.51 5.35-.14.26-.12.7 0 .99 1.08 2.75.21 5.6.49 8.39-.87 1.04-.27 2.08 0 3.12.62 2.31.87 4.6 0 6.91-.08.22 0 .5-.02.75-.02.15-.11.29-.2.54-1.4-.24-2.84.3-4.3-.47-.66-.35-1.65-.06-2.5-.06-2.02 0-4.04-.02-6.06 0-1.04.01-2.04.08-3.1.42-1.89.61-2.53-.07-2.54-2.1-.01-2.44.01-4.88 0-7.33-.01-1.25-.36-1.57-1.6-1.62-.34-.01-.68-.03-1.01 0-4 .36-7.94-.47-11.92-.55-1.91-.04-3.69.88-5.6.55-.78-.14-1.53-.09-2.36-.4-2.1-.78-3.76.61-3.78 2.86 0 .82-.18 1.81.19 2.43.51.85.11 1.63.35 2.44 1.82.57 3.72.78 5.69.81.96.01 1.61-.71 2.58-.61.84.08 1.85.45 2.57-.46 1.63.22 3.32-.47 4.9.36.64.33 1.31.1 1.96.13 1.09.05 2.18.01 3.26.01.4 1.25.85 2.43.78 3.77-.04.7-.51 1.24-.49 1.81.02.58.49 1.11.47 1.81-.07 2.69-.03 5.38-.03 8.28h-6.27c-2.27 0-4.55-.03-6.82.02-.78.02-1.63-.32-2.36.44-.24.25-1.16.26-1.44 0-1.06-.94-2.25-.35-3.36-.44-1.08-.09-1.46.36-1.47 1.46-.03 2.27 0 4.55 0 6.81 1.56.84 3.25.85 4.96.81 1.85-.04 3.71.02 5.56-.03.79-.02 1.6.24 2.37-.4.35-.29 1.24-.29 1.69-.05 1.5.8 3.08.39 4.61.45 1.93.08 3.87.01 5.81.02.81 0 1.29-.5 1.24-1.19-.09-1.2.51-2.5-.45-3.59.14-1.8-.43-3.65.32-5.4.32-.74.05-1.48.18-2.25.57-.43 1.26-.18 1.9-.19 2.1-.04 4.21 0 6.32-.02 2.97-.04 5.93.11 8.9-.44 1.81-.34 2.07.09 2.06 1.84 0 1.04.13 2.07-.44 3.11-.32.58-.34 1.67 0 2.2.63.96.42 1.91.43 2.86.03 5.47.02 10.95.02 16.42v1.7c-3.93.32-7.7.8-11.51.69-.95-.03-1.83-.52-2.9-.15-.98.34-2.28.39-3.23.03-2.13-.81-4.34-.66-6.36-.32-2.07.35-4.09.27-6.13.36-.62.03-1.34.3-1.88-.36-.1-.12-.5-.14-.66-.05-1.23.74-2.5.56-3.75.13-.6-.21-.87.43-1.48.33-1.85-.32-3.79.45-5.61-.52-.33-.17-.92-.18-1.23 0-1.82 1.05-3.75.22-5.6.44-1.09-.95-2.53-.68-3.57-.37-1.65.48-3.25.35-4.87.39-.7.02-1.45.26-2.12-.39-.27-.26-1.13-.29-1.43-.06-1.58 1.25-3.65-.35-5.17.97-.28-.33-.57-.54-1.06-.52-.7.04-1.45.17-2.04-.42-.57.76-1.39.32-2.09.44-.75.13-1.27-.21-1.66-.88.29-.91 1.18-1.83.12-2.87-.18-.17-.08-.63-.08-.96v-10.89h5.94c-1.16 2.45.7 4.03 1.69 5.87 1.35-.23 2.03-1.27 2.9-2.06-.64-1.26-1.1-2.64-2.3-3.45-.18-.38.22-.41.26-.6.84-3.84.96-7.79.48-11.61-.37-2.91-.26-5.77-.36-8.65-.1-2.94-.02-5.89-.02-8.84 0-.25-.04-.51 0-.76.35-1.86-.25-2.77-2-2.82-1.94-.05-3.87-.01-5.83-.01-.53-.47-.24-1.09-.25-1.63-.03-4.04-.03-8.08-.01-12.13 0-1.83.68-2.33 2.47-1.65.5.19.96.11 1.41.26 1.28.42 2.35-1.12 3.74-.28 1.1.67 2.45.26 3.67.24 1.28-.02 2.55.16 3.87-.39.84-.35 2.12-.42 3.11.24.53.36 1.13.16 1.7.16 6.91.02 13.81.02 20.72 0 .71 0 1.5.26 2.09-.48.1-.12.55-.12.73 0 1.37.93 2.9.36 4.35.47.62.05 1.22.11 1.89-.33.53-.35 1.56-.37 2.17-.11 1.77.77 3.58.31 5.37.45.33.03.67 0 1 0Zm-50.7 4.05c-.06-.14-.09-.38-.17-.4-.3-.07-.35.16-.41.38-.94.15-2.01-.2-3.07.25.46.99.8 1.86 1.26 2.66.22.37.55.88 1.19.58.2-1.16 1.04-2.19.68-3.47h.51c-.03.67 0 1.28.97.87-.24-.43-.49-.79-.97-.87Zm28.12 5.14c-.23 1.13-1.23 1.78-.67 2.9h2.68c1.89-2.03 1.91-4.42 1.6-7.09-.62.26-1.27-.22-1.87.26-.16.72.18 1.46-.52 2.1-.75.69-1.38-.21-2.19-.13.44.83.52 1.57.97 1.96Zm24.04-2.38c-.35-.81-.62-1.63-1.42-2.3-1 .18-2.13-.14-3.32.22 1.23 1.13.93 2.9 2.07 3.98 1-.56 1.47-1.67 2.67-1.9Zm-30.53 5.96c-1.56.03-2.52-1-3.85-.51-.19.89-.28 1.77.56 2.32.93-.59 2.21-.43 3.29-1.81Zm31.59 42.22c2.24.08 2.32.01 2.23-1.8h-2.36c.05.68-.14 1.26.14 1.8Zm-55.52-53.96c-.44.89-.79 1.63-1.29 2.66 1.11-.43 2.09-.56 2.55-1.49.14-.29.2-.82-.2-1.17h-1.06Zm21.73 1.08h-3.66c1.34.45.53 1.51 1.32 2.02.9-.39 1.39-1.25 2.34-2.02Zm29.82 39.35c-.55.86-.22 1.48.47 1.88.47-.39.92-.75 1.34-1.09-.46-.71-1.04-.94-1.81-.78ZM38.43 145.01c-1.48.58-2.55 1.18-3.94.29-.68-.44-1.85-.1-2.79-.54-.74-.34-1.41.74-2.5.44.25 1.17-.35 2.27.5 3.37.28.37.05 1.14.05 1.73 0 5.14-.03 10.28.02 15.41.01 1.45-.2 2.89.43 4.36.55 1.3-.74 2.64-.45 4.06-1.2 1.4.03 2.31.55 3.43 2.04 0 4-.19 5.88.08.87.12 1.29-1.21 2.24-.32.62.58 1.6.18 2.41.23.84.05 1.7.1 2.52-.02.74-.11 1.16.73 1.81.52 2.93-.96 8.01-.29 10.98-.49 1.08-.07 1.45-.41 1.46-1.5.02-3.03 0-6.06.02-9.1 0-.48-.16-.99.26-1.6 1.11.79 2.42.57 3.7.57 2.36.01 4.72.03 7.08-.01.79-.02 1.53-.01 2.37-.38 1.26-.55 2.71.04 4.02.44.37.11.85.53.77 1.16-.21 1.63.3 3.29-.27 4.94-.18.52.39 1.27.26 1.97-.21 1.13.38 2.19.07 3.39-.29 1.1-.06 2.34-.06 3.52v3.79c0 1.18-.04 2.36.02 3.54.04.71-.23 1.43.37 2.13.3.35.13 1.12.1 1.7-.03.66-.44 1.07-1.1 1.1-.75.03-1.52.08-2.24-.08-1.91-.43-1.89-.39-3.94 0-.92.18-1.93.33-2.89-.2-.74-.42-1.59-.35-2.37-.04-1.27.5-2.51.56-3.75-.03-.14-.07-.34-.18-.44-.13-2.15 1.01-4.42.35-6.62.46-1.13.06-4.44.37-5.5-.25-.49-.28-.53.08-.73.24-.31.26-.65.43-1.01.6-.61.29-.82-.97-1.46-.21-.33.4-.97.2-1.43.12-.52-.09-1.1-.33-1.53-.54-.9-.45-1.54-.5-2.41.04-1.14.71-2.41.89-3.68.19-.13-.07-.37-.2-.43-.15-1.14.99-2.25.12-3.39.04-.93-.07-1.9-.27-2.89.32-.62.37-1.65.26-2.45.11-3.72-.7-4.07-.72-7.53.38-.59.19-1.11.31-1.55-.23-.7-.85-1.56-.91-2.4-.35-.57.39-1.13.15-1.68.22-1.06.12-2.35-1.18-3.16.51-.96-.15-1.97.32-2.88-.37-.88-.67-1.87-.49-2.8-.12-.75.3-1.46.72-2.34.44-.24-.74-1.23-1.38-.32-2.44.29-.34.05-1.14.05-1.73v-12.5c1.23.21 2.27-.07 3.45.47.98.44 2.32.13 3.5.08.76-.04 1.63-1.04 1.64-1.86.03-2.11.37-4.29-.07-6.3-.68-3.07-.25-6.11-.4-9.16-.03-.7-.31-1.49.41-2.11.17-.15.01-.64.08-.96.19-.96-.74-1.78-.09-2.91.43-.76.11-1.98.07-2.99-.02-.55-.07-1.07-.29-1.64-.37-.94-.41-1.99.15-3.06.53-1.01-.06-1.89-1.16-1.82-1.36.09-2.82-.55-4.1.45-.16.12-.49 0-.74.02-2.24.1-2.43-.08-2.44-2.3 0-1.26-.12-2.54.03-3.79.27-2.26-.59-4.39-.56-6.62.02-.99.15-1.91.75-2.97h35.42c.81 0 1.32.51 1.23 1.2-.31 2.59.72 5.06.55 7.63-.07 1.09-.05 2.19 0 3.28.04.99-.94 1.77-.42 2.85Zm.99 41.69c2.73-.25 5.56.6 8.19-1.34-2.41-1.35-4.66-2.62-7.06-3.97-.2 1.89-1.49 3.32-1.13 5.31Zm29.14-5.96c1.2.87 1.34 2.46 2.35 2.81.88-.77 1.6-1.41 2.37-2.08-.42-.53-.87-1.09-1.52-1.43-.87.86-1.93.42-3.21.7Zm-56.58-45.08c.19.98-.2 1.81.33 2.56.8-.67 1.79-2.31 1.55-2.56h-1.88ZM.89 208.82v-5.38h176.4v5.38H.89Zm266.44-128.3c-.01-.35.16-.52.51-.51.01.35-.16.52-.51.51Z"/>
    <path class="cls-1" d="M268.12 79.55c.06.06.17.14.16.16-.06.11-.13.25-.23.3-.21.1-.32 0-.21-.21.05-.1.19-.16.29-.24Zm-2.02 43.97c.06.06.17.14.16.16-.06.11-.13.25-.23.3-.21.1-.32 0-.21-.21.05-.1.19-.16.29-.24Zm-.29-41.49c-.01-.35.16-.52.51-.51.01.35-.16.52-.51.51Z"/>
    <path class="cls-1" d="M266.31 81.53c-.01-.35.16-.52.51-.51.01.35-.16.52-.51.51Z"/>
    <path class="cls-1" d="M267.33 80.52c.01.35-.16.52-.51.51-.01-.35.16-.52.51-.51Z"/>
    <path class="cls-1" d="M226.99 111.31c.57-5.16 1.06-10.33 1.74-15.48.73-5.47 1.89-10.8 7-14.99v16.53l.94.08c.52-2.8 1.01-5.61 1.58-8.41.52-2.55 1.2-5.07 1.68-7.63 1.38-7.44 5.77-12.84 11.33-17.63 10.78-9.29 21.41-18.74 32.12-28.11.69-.6 1.46-1.11 2.48-1.87.24 4.97.46 9.68.69 14.38l.64.03c.71-3.67 1.41-7.35 2.15-11.02.33-1.65.86-3.26 1.14-4.91.48-2.8 2.35-4.3 4.95-5.66.28 3.7.54 7.2.81 10.7.16 0 .32 0 .49-.01.76-3.94 1.44-7.89 2.31-11.8.24-1.07.77-2.39 1.61-2.96 7.93-5.4 15.95-10.67 23.96-15.95.39-.26.9-.35 1.98-.75-.49 2.68-.73 4.96-1.34 7.14-4.3 15.37-10.85 29.86-17.59 44.26-.51 1.09-1.47 2.11-2.47 2.81-5.79 4.04-11.65 7.98-17.49 11.94-.68.46-1.41.84-2.11 1.26.09.24.18.48.27.73 5.28-1.76 10.56-3.52 16.27-5.43-.91 1.83-1.61 3.33-2.38 4.78-7.74 14.57-15.23 29.31-25.82 42.12-1.13 1.37-2.69 2.61-4.32 3.28-4.73 1.96-9.6 3.6-14.41 5.36-.68.25-1.35.5-2.03.75.04.2.07.41.11.61 4-.36 8-.71 12-1.07.14.26.29.52.43.79-1.71 1.34-3.22 3.27-5.16 3.92-6.27 2.13-12.7 3.8-19.07 5.64-.85.25-1.72.44-2.52 1.22h14.1l.27.64c-2.38 1.92-4.9 3.68-7.1 5.79-4.56 4.36-9.96 5.95-16.12 5.51-.56-.04-1.14.09-1.79.62 1.96.46 3.92.91 6.69 1.56-6.94 4.22-13.36 7.79-21.55 9.47 19.37-32.54 43.07-61.15 65.75-90.48-.18-.17-.36-.35-.54-.52-.56.39-1.14.77-1.68 1.19-11.02 8.41-20.06 18.75-28.36 29.7-13.12 17.31-25.93 34.86-38.87 52.3-.43.58-.89 1.15-1.7 1.61-1.09-14.24 3.1-27.38 8.39-40.98 1.74 5.6 3.3 10.61 4.86 15.62.23-.05.45-.11.68-.16-.18-10.19-3.05-20.59 1.7-30.4.28 0 .56-.02.84-.03.63 4.64 1.27 9.27 1.9 13.91h.58Z"/>
    <path class="cls-1" d="M255.57 95.87c-18.92 24.24-37.18 48.95-51.61 76.2-4.78 9.03-8.32 18.71-12.44 28.08-.27.6-.49 1.39-.98 1.7-2.97 1.9-5.99 3.72-9.04 5.48-.41.24-1.08.03-2.14.03 1.07-2.49 1.91-4.73 2.97-6.87 7.48-15.13 16.7-29.21 26.17-43.12 15.79-23.18 32.35-45.78 50.43-67.24 2.95-3.61 12.63-14.66 13.09-14.38s-9.62 10.67-16.46 20.11Z"/>
</svg>
